<svg width="100" height="100" viewBox="0 0 100 100" fill="none" xmlns="http://www.w3.org/2000/svg">
<g clip-path="url(#clip0_509_20177)">
<path d="M99.2734 16.7503C98.6797 16.0378 97.7985 15.6253 96.8735 15.6253H23.4246L20.7059 5.4442C20.3434 4.07547 19.1059 3.12549 17.6872 3.12549H3.12495C1.39998 3.12549 0 4.52547 0 6.25044C0 7.97541 1.39998 9.37539 3.12495 9.37539H15.2873L17.9747 19.444C17.981 19.4815 17.9685 19.519 17.981 19.5627L27.9808 56.9371C27.9808 56.9434 27.9871 56.9434 27.9871 56.9496L31.3558 69.5557C31.7183 70.9244 32.9557 71.8744 34.3745 71.8744H84.3737C86.0986 71.8744 87.4986 70.4744 87.4986 68.7495C87.4986 67.0245 86.0986 65.6245 84.3737 65.6245H36.7744L35.0182 59.0496L90.7798 56.2434C92.2235 56.1684 93.436 55.1122 93.6985 53.6872L99.9484 19.3127C100.117 18.394 99.8672 17.4565 99.2734 16.7503ZM43.7493 43.7498C43.7493 45.4748 42.3493 46.8748 40.6244 46.8748C38.8994 46.8748 37.4994 45.4748 37.4994 43.7498V31.25C37.4994 29.5251 38.8994 28.1251 40.6244 28.1251C42.3493 28.1251 43.7493 29.5251 43.7493 31.25V43.7498ZM62.499 43.7498C62.499 45.4748 61.099 46.8748 59.3741 46.8748C57.6491 46.8748 56.2491 45.4748 56.2491 43.7498V31.25C56.2491 29.5251 57.6491 28.1251 59.3741 28.1251C61.099 28.1251 62.499 29.5251 62.499 31.25V43.7498ZM81.2487 43.7498C81.2487 45.4748 79.8487 46.8748 78.1238 46.8748C76.3988 46.8748 74.9988 45.4748 74.9988 43.7498V31.25C74.9988 29.5251 76.3988 28.1251 78.1238 28.1251C79.8487 28.1251 81.2487 29.5251 81.2487 31.25V43.7498Z" fill="white"/>
<path d="M40.6249 96.8742C45.8024 96.8742 49.9997 92.677 49.9997 87.4994C49.9997 82.3218 45.8024 78.1245 40.6249 78.1245C35.4473 78.1245 31.25 82.3218 31.25 87.4994C31.25 92.677 35.4473 96.8742 40.6249 96.8742Z" fill="white"/>
<path d="M78.1229 96.8742C83.3005 96.8742 87.4977 92.677 87.4977 87.4994C87.4977 82.3218 83.3005 78.1245 78.1229 78.1245C72.9453 78.1245 68.748 82.3218 68.748 87.4994C68.748 92.677 72.9453 96.8742 78.1229 96.8742Z" fill="white"/>
</g>
<defs>
<clipPath id="clip0_509_20177">
<rect width="100" height="100" fill="white"/>
</clipPath>
</defs>
</svg>
